<svg width="64" height="64" viewBox="0 0 64 64" fill="none" xmlns="http://www.w3.org/2000/svg">
<circle cx="32" cy="32" r="32" fill="#B90202"/>
<path d="M16.4368 50.157L14.4881 51.2118L11.8158 32.8109L13.7345 31.7723L27.6796 44.0716L25.7309 45.1264L14.1496 34.6875L14.0297 34.7525L16.4368 50.157ZM13.9108 43.7714L21.7657 39.5197L22.6583 41.1686L14.8033 45.4204L13.9108 43.7714ZM27.8846 29.075L28.696 30.5741L22.7298 33.8034L21.9184 32.3044L27.8846 29.075ZM22.1643 28.6049L23.9332 27.6475L29.8726 38.6204C30.1431 39.1201 30.4184 39.4557 30.6985 39.6271C30.9809 39.7908 31.2601 39.8529 31.5359 39.8134C31.814 39.7663 32.083 39.6723 32.3428 39.5317C32.5377 39.4262 32.6922 39.3297 32.8063 39.2421C32.9177 39.1495 33.0068 39.0754 33.0737 39.0198L34.2935 40.4141C34.1979 40.524 34.0549 40.6595 33.8644 40.8208C33.6765 40.9871 33.4177 41.1595 33.0879 41.338C32.5883 41.6084 32.0404 41.7661 31.4444 41.8109C30.8534 41.8529 30.2815 41.7393 29.7287 41.47C29.1809 41.198 28.7258 40.7272 28.3634 40.0576L22.1643 28.6049ZM41.6099 36.8415C40.5007 37.4419 39.4112 37.715 38.3417 37.6608C37.2745 37.5989 36.2841 37.2433 35.3707 36.5942C34.4595 35.9374 33.6848 35.0193 33.0465 33.8401C32.4082 32.6609 32.0605 31.5052 32.0034 30.3732C31.9486 29.2335 32.1718 28.2017 32.6731 27.2778C33.1768 26.3462 33.9483 25.5991 34.9876 25.0365C35.5872 24.712 36.2334 24.4914 36.9262 24.3748C37.619 24.2583 38.327 24.295 39.0501 24.4851C39.7705 24.6701 40.4719 25.0528 41.1543 25.6332C41.8367 26.2136 42.4687 27.0409 43.0502 28.1152L43.4559 28.8647L34.5816 33.6682L33.7539 32.1392L40.8294 28.3094C40.4778 27.6598 40.0341 27.1505 39.4984 26.7815C38.9677 26.4097 38.3852 26.2049 37.751 26.1671C37.1217 26.1265 36.4873 26.2793 35.8477 26.6255C35.1431 27.0069 34.6282 27.5117 34.3028 28.1401C33.9798 28.7607 33.8309 29.4227 33.8563 30.1261C33.8817 30.8295 34.0662 31.4985 34.4097 32.1331L34.9614 33.1525C35.432 34.0219 35.9809 34.6778 36.6079 35.1201C37.2373 35.5548 37.907 35.7834 38.617 35.8061C39.3244 35.8238 40.0353 35.6393 40.7499 35.2525C41.2146 35.001 41.5991 34.7089 41.9036 34.3761C42.2103 34.0356 42.4294 33.6586 42.5609 33.245C42.6897 32.8264 42.7208 32.3767 42.6543 31.8958L44.6229 31.4505C44.7567 32.1275 44.7303 32.8008 44.5436 33.4704C44.3542 34.135 44.0134 34.7588 43.5214 35.3417C43.0266 35.9197 42.3894 36.4196 41.6099 36.8415ZM52.2567 19.2167L50.9111 20.5265C50.6678 20.3158 50.3811 20.1382 50.051 19.9939C49.7232 19.8418 49.3498 19.7726 48.9308 19.7862C48.5117 19.7998 48.0449 19.9459 47.5302 20.2245C46.8256 20.6058 46.3264 21.086 46.0325 21.6651C45.7409 22.2364 45.729 22.7694 45.9968 23.2641C46.2348 23.7038 46.5826 23.9645 47.0404 24.0463C47.4981 24.128 48.1127 24.0699 48.8842 23.872L50.8203 23.3667C51.9849 23.0594 52.9588 23.0265 53.7421 23.268C54.5226 23.5045 55.1306 24.025 55.5661 24.8295C55.9231 25.489 56.0524 26.1814 55.9539 26.9066C55.8604 27.6292 55.5575 28.3229 55.0452 28.9878C54.533 29.6528 53.8296 30.2273 52.9352 30.7114C51.7609 31.347 50.6511 31.6182 49.6057 31.5251C48.5604 31.4319 47.6702 30.9511 46.9352 30.0826L48.3869 28.7541C48.8822 29.2872 49.436 29.5883 50.0484 29.6573C50.6658 29.7237 51.3368 29.5608 52.0613 29.1687C52.8858 28.7224 53.4457 28.1932 53.7411 27.5811C54.0387 26.9612 54.0537 26.404 53.7859 25.9093C53.5696 25.5096 53.2484 25.2505 52.8226 25.1321C52.394 25.0088 51.8534 25.0365 51.2007 25.2153L49.0385 25.8042C47.849 26.125 46.8649 26.157 46.0862 25.9001C45.3098 25.6355 44.7066 25.106 44.2766 24.3115C43.925 23.6619 43.7963 22.9885 43.8906 22.2914C43.9899 21.5916 44.2798 20.9275 44.7602 20.2992C45.2456 19.6682 45.8931 19.1336 46.7026 18.6955C47.8418 18.0788 48.8715 17.8445 49.7915 17.9926C50.7166 18.138 51.5383 18.546 52.2567 19.2167Z" fill="#D7D7D7"/>
</svg>
